<?xml version="1.0" encoding="UTF-8"?>
<!-- Uploaded to: SVG Repo, www.svgrepo.com, Generator: SVG Repo Mixer Tools -->
<svg fill="#000000" width="800px" height="800px" version="1.1" viewBox="144 144 512 512" xmlns="http://www.w3.org/2000/svg">
 <g>
  <path d="m400 277.41c3.3594 0 6.1562-2.8008 6.1562-6.1562v-29.109c0-3.3594-2.8008-6.1562-6.1562-6.1562-3.3594 0-6.1562 2.8008-6.1562 6.1562v29.109c-0.003906 3.3555 2.7969 6.1562 6.1562 6.1562z"/>
  <path d="m380.41 277.41c3.3594 0 6.1562-2.8008 6.1562-6.1562v-29.109c0-3.3594-2.8008-6.1562-6.1562-6.1562-3.3594 0-6.1562 2.8008-6.1562 6.1562v29.109c-0.5625 3.3555 2.2383 6.1562 6.1562 6.1562z"/>
  <path d="m309.31 453.74c-19.594 0-50.941-49.82-50.941-49.82s13.434 69.414 55.418 71.652c25.75 1.1211 25.75-53.18 25.75-53.18 0.003907 0-11.754 31.348-30.227 31.348z"/>
  <path d="m525.95 324.43c-7.8359-5.5977-28.551-20.152-55.98-30.23-23.512-8.957-42.543-12.316-69.973-12.316-27.43 0-45.902 3.3594-69.973 12.316-26.871 10.078-48.141 24.07-55.98 30.23 41.426-22.953 116.44-25.75 125.95-25.75 9.5195 0 84.531 2.8008 125.95 25.75z"/>
  <path d="m488.45 434.71c17.914-2.8008 49.262-71.094 30.789-92.926-24.07-28.551-106.36-31.906-119.23-31.906s-94.605 3.3594-119.23 31.906c-18.473 21.832 12.316 90.125 30.789 92.926 17.914 2.8008 45.344-80.609 88.445-80.609s70.531 83.406 88.445 80.609z"/>
  <path d="m400 369.21c-19.594 0-39.184 31.906-40.305 33.586 1.6797-1.1211 26.871-17.352 40.305-16.793 13.434-0.55859 38.625 15.676 40.305 16.793-1.1211-1.6797-20.715-33.586-40.305-33.586z"/>
  <path d="m400 448.7c-7.8359 0-14.555 6.1562-14.555 23.512v21.273h29.109v-21.273c0-17.352-6.7188-23.512-14.555-23.512z"/>
  <path d="m419.59 277.41c3.3594 0 6.1562-2.8008 6.1562-6.1562v-29.109c0-3.3594-2.8008-6.1562-6.1562-6.1562-3.3594 0-6.1562 2.8008-6.1562 6.1562v29.109c0 3.3555 2.7969 6.1562 6.1562 6.1562z"/>
  <path d="m490.68 453.74c-18.473 0-30.23-31.348-30.23-31.348s0 54.301 25.75 53.18c41.984-1.6797 55.418-71.652 55.418-71.652 0.003906 0-31.344 49.262-50.938 49.82z"/>
  <path d="m593.12 397.76c0.55859-10.078 1.1211-23.512 1.1211-37.504 0-14.555-5.5977-21.273-11.195-24.07-1.1211-85.648-19.031-99.082-25.191-104.12-7.8359-6.1562-20.152-10.637-34.148-13.996-17.352-53.18-99.082-54.297-123.71-54.297-24.633 0-106.36 1.1172-123.71 54.297-13.996 3.3594-26.309 7.8359-34.148 13.996-6.7188 5.0391-24.629 18.473-25.191 104.12-5.5977 3.3594-11.195 9.5156-11.195 24.07 0 13.996 0.55859 27.43 1.1211 37.504-10.078 11.195-19.594 29.668-17.914 61.016 1.6797 33.027 29.109 49.82 47.023 54.859l3.918 58.219 119.23 62.137h80.609l119.23-62.137 3.918-58.219c17.914-5.5977 45.344-22.391 47.023-54.859 2.2422-30.785-7.2773-49.816-16.793-61.016zm-390.73 60.457c-1.6797-30.23 8.3984-45.902 16.793-54.301 0 2.8008 0.55859 6.1562 0.55859 8.957-6.1562 10.078-15.113 28.551-11.754 46.461 2.8008 16.793 12.316 24.629 19.031 27.988 0.55859 3.3594 0.55859 6.7188 1.1211 9.5156-11.195-6.1523-25.191-17.906-25.75-38.621zm197.61-281.57c20.711 0 72.773 1.6797 92.926 35.828-41.426-5.5977-71.652-5.5977-92.926-5.5977s-52.059 0-92.926 5.5977c20.152-34.148 72.211-35.828 92.926-35.828zm27.43 435.52c0 5.0391-4.4766 9.5156-9.5156 9.5156h-35.266c-5.5977 0-9.5156-4.4766-9.5156-9.5156v-6.7188c0-5.5977 4.4766-9.5156 9.5156-9.5156h35.266c5.5977 0 9.5156 4.4766 9.5156 9.5156zm0-29.109h-54.859v-12.875h54.859zm0-25.75h-54.859v-12.875h54.859zm0-25.754h-54.859v-12.875h54.859zm0-25.75h-54.859v-34.148c0-27.988 17.914-36.387 27.43-36.387s27.43 8.3984 27.43 36.387zm125.95-1.1172c-0.55859 15.113-7.2773 42.543-11.754 49.262-19.031 30.23-86.207 57.656-86.207 57.656s20.152-38.625 20.711-52.621c0.55859-13.996-3.918-29.668-3.918-29.668l-31.906 72.215v-136.03c0-45.344-39.746-43.105-40.305-43.105 0 0-40.305-2.2383-40.305 43.105v136.03l-31.906-72.211s-5.0391 15.676-3.918 29.668c0.55859 13.996 20.711 52.621 20.711 52.621s-67.176-27.43-86.207-57.656c-4.4766-6.7188-11.195-34.148-11.754-49.262 0-6.1562-7.2773-227.27 8.957-248.55 22.391-28.551 125.39-29.668 144.43-29.668s122.04 1.1211 144.43 29.668c16.227 21.27 8.9492 242.38 8.9492 248.54zm44.227-46.465c-1.1211 20.152-14.555 31.906-25.75 38.066 0.55859-2.8008 0.55859-5.5977 1.1211-9.5156 6.7188-3.3594 16.234-11.195 19.031-27.988 3.3594-17.914-5.5977-35.828-11.754-46.461 0-2.8008 0.55859-6.1562 0.55859-8.957 8.9531 8.9531 18.469 25.188 16.793 54.855z"/>
 </g>
</svg>